<?xml version="1.0" encoding="UTF-8" standalone="no"?>
<!-- Created with Inkscape (http://www.inkscape.org/) -->

<svg
   xmlns:dc="http://purl.org/dc/elements/1.1/"
   xmlns:cc="http://creativecommons.org/ns#"
   xmlns:rdf="http://www.w3.org/1999/02/22-rdf-syntax-ns#"
   xmlns:svg="http://www.w3.org/2000/svg"
   xmlns="http://www.w3.org/2000/svg"
   xmlns:xlink="http://www.w3.org/1999/xlink"
   xmlns:sodipodi="http://sodipodi.sourceforge.net/DTD/sodipodi-0.dtd"
   xmlns:inkscape="http://www.inkscape.org/namespaces/inkscape"
   width="240"
   height="96"
   viewBox="0 0 240 96.000001"
   id="svg4199"
   version="1.1"
   inkscape:version="0.91 r13725"
   sodipodi:docname="navigation_logo.svg"
   inkscape:export-filename="/Users/medicalwei/Documents/debconf18/git/artworks/logos/horizontal.png"
   inkscape:export-xdpi="900"
   inkscape:export-ydpi="900">
  <defs
     id="defs4201" />
  <sodipodi:namedview
     id="base"
     pagecolor="#ffffff"
     bordercolor="#666666"
     borderopacity="1.0"
     inkscape:pageopacity="0.0"
     inkscape:pageshadow="2"
     inkscape:zoom="8"
     inkscape:cx="129.5"
     inkscape:cy="44.687672"
     inkscape:document-units="px"
     inkscape:current-layer="layer1"
     showgrid="true"
     units="px"
     showguides="true"
     inkscape:guide-bbox="true"
     inkscape:snap-bbox="true"
     inkscape:bbox-paths="true"
     inkscape:bbox-nodes="true"
     inkscape:snap-bbox-edge-midpoints="true"
     inkscape:snap-bbox-midpoints="true"
     inkscape:object-paths="true"
     inkscape:snap-intersection-paths="true"
     inkscape:object-nodes="true"
     inkscape:snap-midpoints="true"
     inkscape:snap-smooth-nodes="true"
     inkscape:snap-nodes="true"
     inkscape:window-width="1920"
     inkscape:window-height="1036"
     inkscape:window-x="1283"
     inkscape:window-y="7"
     inkscape:window-maximized="0">
    <inkscape:grid
       type="xygrid"
       id="grid4852"
       empspacing="4" />
  </sodipodi:namedview>
  <metadata
     id="metadata4204">
    <rdf:RDF>
      <cc:Work
         rdf:about="">
        <dc:format>image/svg+xml</dc:format>
        <dc:type
           rdf:resource="http://purl.org/dc/dcmitype/StillImage" />
        <dc:title />
      </cc:Work>
    </rdf:RDF>
  </metadata>
  <g
     inkscape:label="Layer 1"
     inkscape:groupmode="layer"
     id="layer1"
     transform="translate(0,-956.36216)">
    <rect
       style="opacity:1;fill:#ffffff;fill-opacity:1;stroke:#4b0080;stroke-width:5;stroke-linecap:round;stroke-linejoin:miter;stroke-miterlimit:4;stroke-dasharray:none;stroke-dashoffset:10;stroke-opacity:1"
       id="rect4165"
       width="234.96132"
       height="90.961327"
       x="2.5193384"
       y="958.88147" />
    <g
       transform="matrix(3.992726,0,0,3.992726,-108.97671,726.24297)"
       id="g2533">
      <path
         style="color:#000000;clip-rule:nonzero;display:inline;overflow:visible;visibility:visible;opacity:1;isolation:auto;mix-blend-mode:normal;color-interpolation:sRGB;color-interpolation-filters:linearRGB;solid-color:#000000;solid-opacity:1;fill:#4b0080;fill-opacity:1;fill-rule:nonzero;stroke:none;stroke-width:0.64241016;stroke-linecap:round;stroke-linejoin:round;stroke-miterlimit:4;stroke-dasharray:none;stroke-dashoffset:0;stroke-opacity:1;marker:none;color-rendering:auto;image-rendering:auto;shape-rendering:auto;text-rendering:auto;enable-background:accumulate"
         d="m 41.822227,71.23583 c -0.619803,0 -1.207338,0.04056 -1.743607,0.113333 0.177813,0.160134 0.36862,0.304993 0.567698,0.438466 a 3.956539,1.0240972 0 0 1 1.174882,-0.04769 3.956539,1.0240972 0 0 1 3.956965,1.024114 3.956539,1.0240972 0 0 1 -3.956965,1.024112 3.956539,1.0240972 0 0 1 -3.956451,-1.024112 3.956539,1.0240972 0 0 1 1.928228,-0.878471 c -0.151767,-0.129883 -0.296895,-0.267111 -0.433853,-0.412825 -0.211413,0.04512 -0.412253,0.09544 -0.597442,0.151797 -0.402809,0.122588 -0.740638,0.269874 -0.99847,0.455389 -0.257835,0.185513 -0.451287,0.432103 -0.451287,0.719495 0,0.0084 0.0017,0.01627 0.0021,0.02462 l -0.0047,0 c 0.0018,0.01083 0.0053,0.02198 0.0071,0.03282 0.0054,0.05877 0.01817,0.115876 0.03846,0.17077 0.004,0.01477 0.0054,0.02927 0.0097,0.0441 0.581717,1.943771 1.994991,3.597472 4.456454,3.597472 2.461467,0 3.884865,-1.685815 4.456969,-3.597472 0.0046,-0.01542 0.0062,-0.03078 0.01026,-0.04615 0.01971,-0.05418 0.03215,-0.110758 0.03743,-0.168717 0.0019,-0.01098 0.0054,-0.02185 0.0071,-0.03282 l -0.0047,0 c 3.25e-4,-0.0083 0.0021,-0.0162 0.0021,-0.02462 0,-0.287392 -0.191912,-0.533982 -0.449748,-0.719495 -0.257836,-0.185515 -0.595661,-0.332801 -0.998471,-0.455389 -0.80562,-0.245171 -1.87658,-0.388721 -3.060031,-0.388721 z"
         id="path2362"
         inkscape:connector-curvature="0" />
      <path
         style="color:#000000;font-style:normal;font-variant:normal;font-weight:normal;font-stretch:normal;font-size:medium;line-height:normal;font-family:sans-serif;text-indent:0;text-align:start;text-decoration:none;text-decoration-line:none;text-decoration-style:solid;text-decoration-color:#000000;letter-spacing:normal;word-spacing:normal;text-transform:none;direction:ltr;writing-mode:lr-tb;baseline-shift:baseline;text-anchor:start;white-space:normal;clip-rule:nonzero;display:inline;overflow:visible;visibility:visible;opacity:1;isolation:auto;mix-blend-mode:normal;color-interpolation:sRGB;color-interpolation-filters:linearRGB;solid-color:#000000;solid-opacity:1;fill:#a80030;fill-opacity:1;fill-rule:evenodd;stroke:none;stroke-width:0.59486675;stroke-linecap:round;stroke-linejoin:round;stroke-miterlimit:4;stroke-dasharray:none;stroke-dashoffset:0;stroke-opacity:1;color-rendering:auto;image-rendering:auto;shape-rendering:auto;text-rendering:auto;enable-background:accumulate"
         d="m 42.589421,62.69479 c -0.920382,-0.117265 -1.863361,0.09758 -2.655829,0.566028 -1.27347,0.752789 -2.096067,2.1207 -2.310966,3.564847 -0.218268,1.466771 0.172445,3.004432 1.064581,4.188977 0.892136,1.184545 2.261645,1.98452 3.731656,2.179768 a 0.29799258,0.29799258 0 1 0 0.07872,-0.590392 c -1.306125,-0.173481 -2.541635,-0.894873 -3.334312,-1.947359 -0.792678,-1.052487 -1.144185,-2.439656 -0.95025,-3.742903 0.190173,-1.277986 0.92854,-2.493583 2.024203,-3.141265 0.681826,-0.403049 1.498729,-0.586495 2.277229,-0.487309 0.77708,0.099 1.522787,0.488615 2.026078,1.079577 0.527192,0.619023 0.787102,1.477762 0.657866,2.271606 -0.06484,0.398242 -0.224085,0.782216 -0.461069,1.105814 -0.23685,0.323422 -0.554635,0.590096 -0.91464,0.760952 -0.280108,0.132937 -0.587225,0.20825 -0.890274,0.211791 -0.302399,0.0035 -0.605401,-0.06654 -0.86591,-0.206169 -0.37356,-0.20022 -0.668637,-0.562083 -0.777819,-0.965245 -0.108712,-0.401428 -0.03331,-0.861834 0.204295,-1.195779 0.182045,-0.255859 0.46435,-0.448386 0.768447,-0.526668 0.304095,-0.07829 0.642925,-0.04618 0.925887,0.08996 a 0.29799258,0.29799258 0 1 0 0.258647,-0.53604 c -0.413205,-0.198819 -0.890388,-0.245516 -1.334472,-0.131197 -0.444082,0.114317 -0.838096,0.385441 -1.103941,0.759076 -0.348879,0.490331 -0.449983,1.123057 -0.294259,1.698082 0.155255,0.57329 0.554011,1.056802 1.072077,1.334476 0.356568,0.191113 0.756871,0.280203 1.154546,0.275516 0.397024,-0.0046 0.785278,-0.102649 1.137677,-0.269893 0.452868,-0.214928 0.846658,-0.543994 1.141426,-0.946503 0.294637,-0.402327 0.488157,-0.872749 0.567902,-1.362589 0.159919,-0.98232 -0.151344,-2.002287 -0.790939,-2.753293 -0.607129,-0.712886 -1.484748,-1.166424 -2.406553,-1.283869 z"
         id="path1498"
         inkscape:connector-curvature="0" />
      <path
         style="color:#000000;font-style:normal;font-variant:normal;font-weight:normal;font-stretch:normal;font-size:medium;line-height:normal;font-family:sans-serif;text-indent:0;text-align:start;text-decoration:none;text-decoration-line:none;text-decoration-style:solid;text-decoration-color:#000000;letter-spacing:normal;word-spacing:normal;text-transform:none;direction:ltr;writing-mode:lr-tb;baseline-shift:baseline;text-anchor:start;white-space:normal;clip-rule:nonzero;display:inline;overflow:visible;visibility:visible;opacity:1;isolation:auto;mix-blend-mode:normal;color-interpolation:sRGB;color-interpolation-filters:linearRGB;solid-color:#000000;solid-opacity:1;fill:#a80030;fill-opacity:1;fill-rule:evenodd;stroke:none;stroke-width:0.51925528;stroke-linecap:round;stroke-linejoin:round;stroke-miterlimit:4;stroke-dasharray:none;stroke-dashoffset:0;stroke-opacity:1;color-rendering:auto;image-rendering:auto;shape-rendering:auto;text-rendering:auto;enable-background:accumulate"
         d="m 35.178035,62.643715 c -0.207835,0.0032 -0.373927,0.199009 -0.370559,0.437035 l 0.195072,13.381169 c 0,0.138201 0.0905,0.207301 0.181002,0.207301 0.0905,0 0.181001,-0.0691 0.181001,-0.207301 L 35.559625,63.08075 c 0.0034,-0.242984 -0.169432,-0.440981 -0.38159,-0.437035 z"
         id="path2310"
         inkscape:connector-curvature="0"
         sodipodi:nodetypes="cccsccc" />
      <use
         x="0"
         y="0"
         xlink:href="#path2310"
         id="use2337"
         width="100%"
         height="100%"
         transform="translate(1.2531102,-4.7451432e-7)" />
    </g>
    <g
       transform="matrix(9.5915137,0,0,9.5915137,-243.97778,235.73982)"
       id="text2392"
       style="font-style:normal;font-variant:normal;font-weight:300;font-stretch:normal;font-size:2.96265769px;line-height:125%;font-family:'Alegreya Sans';-inkscape-font-specification:'Alegreya Sans, Light';text-align:start;letter-spacing:0px;word-spacing:0px;writing-mode:lr-tb;text-anchor:start;fill:#4b0080;fill-opacity:1;stroke:none;stroke-width:0.07406633px;stroke-linecap:butt;stroke-linejoin:miter;stroke-opacity:1"
       aria-label="DebConf">
      <path
         id="path2544"
         style="font-style:normal;font-variant:normal;font-weight:300;font-stretch:normal;font-size:2.96265769px;font-family:'Alegreya Sans';-inkscape-font-specification:'Alegreya Sans, Light';text-align:start;writing-mode:lr-tb;text-anchor:start;fill:#4b0080;fill-opacity:1;stroke-width:0.07406633px"
         d="m 34.612102,78.242528 0.0089,1.318382 -0.0089,0.574756 c 0.148133,0.0059 0.500689,0.01481 0.592532,0.01481 0.56883,0 0.882872,-0.364407 0.882872,-1.025079 0,-0.577719 -0.296266,-0.894723 -0.832507,-0.894723 z m 0.61327,1.777594 c -0.06518,0 -0.322929,-0.0089 -0.459212,-0.01778 l -0.0059,-0.450324 0.0089,-1.176175 c 0.121469,-0.0059 0.414772,-0.01481 0.476988,-0.01481 0.444399,0 0.684374,0.269602 0.684374,0.79103 0,0.56883 -0.254789,0.868058 -0.705113,0.868058 z"
         inkscape:connector-curvature="0" />
      <path
         id="path2546"
         style="font-style:normal;font-variant:normal;font-weight:300;font-stretch:normal;font-size:2.96265769px;font-family:'Alegreya Sans';-inkscape-font-specification:'Alegreya Sans, Light';text-align:start;writing-mode:lr-tb;text-anchor:start;fill:#4b0080;fill-opacity:1;stroke-width:0.07406633px"
         d="m 36.96885,78.769881 c -0.361444,0 -0.595494,0.269602 -0.595494,0.705112 0,0.414772 0.213311,0.678449 0.574756,0.678449 0.142207,0 0.281452,-0.04444 0.396996,-0.118506 l 0.01778,-0.13332 -0.0237,-0.0089 c -0.109618,0.08592 -0.251825,0.13332 -0.37922,0.13332 -0.287378,0 -0.441436,-0.216274 -0.441436,-0.559943 l 0,-0.0474 0.862134,-0.01481 0.03555,-0.02963 c 0.003,-0.02963 0.0059,-0.08592 0.0059,-0.112581 0,-0.305154 -0.168872,-0.491801 -0.453287,-0.491801 z m 0.308117,0.515502 -0.74659,0.02074 c 0.04444,-0.263677 0.198498,-0.420698 0.426623,-0.420698 0.195535,0 0.325892,0.124432 0.325892,0.361445 z"
         inkscape:connector-curvature="0" />
      <path
         id="path2548"
         style="font-style:normal;font-variant:normal;font-weight:300;font-stretch:normal;font-size:2.96265769px;font-family:'Alegreya Sans';-inkscape-font-specification:'Alegreya Sans, Light';text-align:start;writing-mode:lr-tb;text-anchor:start;fill:#4b0080;fill-opacity:1;stroke-width:0.07406633px"
         d="m 38.397638,78.772843 c -0.154058,0.02074 -0.281452,0.08592 -0.405884,0.207386 l -0.01481,0 0.0059,-0.924349 -0.151095,0.01481 0.0089,1.49318 -0.01185,0.571793 0.02963,0.01778 0.109618,-0.05333 c 0.09777,0.03555 0.201461,0.05629 0.302191,0.05629 0.402921,0 0.639934,-0.266639 0.639934,-0.731776 0,-0.408847 -0.180722,-0.651785 -0.51254,-0.651785 z m -0.115543,1.265055 c -0.09184,0 -0.192573,-0.02666 -0.302191,-0.08295 l -0.0059,-0.405884 0.003,-0.417735 c 0.127394,-0.154058 0.263676,-0.228125 0.408847,-0.228125 0.239975,0 0.376257,0.195536 0.37922,0.533279 0.003,0.394033 -0.180722,0.601419 -0.482913,0.601419 z"
         inkscape:connector-curvature="0" />
      <path
         id="path2550"
         style="font-style:normal;font-variant:normal;font-weight:300;font-stretch:normal;font-size:2.96265769px;font-family:'Alegreya Sans';-inkscape-font-specification:'Alegreya Sans, Light';text-align:start;writing-mode:lr-tb;text-anchor:start;fill:#4b0080;fill-opacity:1;stroke-width:0.07406633px"
         d="m 39.999881,78.227714 c -0.521428,0 -0.814731,0.349594 -0.814731,0.971752 0,0.61327 0.281452,0.953976 0.779179,0.953976 0.18961,0 0.373295,-0.05925 0.539203,-0.168872 l 0.01185,-0.14517 -0.0237,-0.0089 c -0.151096,0.118506 -0.334781,0.186648 -0.518465,0.186648 -0.402922,0 -0.631046,-0.287378 -0.631046,-0.826582 0,-0.539204 0.231087,-0.829544 0.651784,-0.829544 0.17776,0 0.337743,0.06222 0.4681,0.165909 l 0.0237,-0.003 0.03259,-0.139245 c -0.142208,-0.10073 -0.325893,-0.157021 -0.518465,-0.157021 z"
         inkscape:connector-curvature="0" />
      <path
         id="path2552"
         style="font-style:normal;font-variant:normal;font-weight:300;font-stretch:normal;font-size:2.96265769px;font-family:'Alegreya Sans';-inkscape-font-specification:'Alegreya Sans, Light';text-align:start;writing-mode:lr-tb;text-anchor:start;fill:#4b0080;fill-opacity:1;stroke-width:0.07406633px"
         d="m 41.268037,78.766918 c -0.370333,0 -0.589569,0.263677 -0.589569,0.711038 0,0.42366 0.207386,0.675486 0.562905,0.675486 0.373295,0 0.592531,-0.263677 0.592531,-0.708075 0,-0.426623 -0.210348,-0.678449 -0.565867,-0.678449 z m -0.0059,0.115544 c 0.269602,0 0.426623,0.213311 0.426623,0.592531 0,0.361444 -0.159983,0.562905 -0.441436,0.562905 -0.266639,0 -0.42366,-0.207386 -0.42366,-0.589569 0,-0.358481 0.159984,-0.565867 0.438473,-0.565867 z"
         inkscape:connector-curvature="0" />
      <path
         id="path2554"
         style="font-style:normal;font-variant:normal;font-weight:300;font-stretch:normal;font-size:2.96265769px;font-family:'Alegreya Sans';-inkscape-font-specification:'Alegreya Sans, Light';text-align:start;writing-mode:lr-tb;text-anchor:start;fill:#4b0080;fill-opacity:1;stroke-width:0.07406633px"
         d="m 43.093867,80.135666 0.154058,0 -0.0059,-0.583644 0.003,-0.37922 c 0.003,-0.254788 -0.14517,-0.402921 -0.420698,-0.402921 -0.133319,0.01481 -0.284415,0.09777 -0.417734,0.228124 l -0.01481,0 0,-0.216274 -0.14517,0.01778 0.0059,0.758441 -0.0089,0.577718 0.154058,0 -0.0089,-0.586606 0.003,-0.399959 C 42.528,78.99208 42.685021,78.9032 42.827228,78.9032 c 0.180722,0 0.27849,0.112581 0.275527,0.299229 z"
         inkscape:connector-curvature="0" />
      <path
         id="path2556"
         style="font-style:normal;font-variant:normal;font-weight:300;font-stretch:normal;font-size:2.96265769px;font-family:'Alegreya Sans';-inkscape-font-specification:'Alegreya Sans, Light';text-align:start;writing-mode:lr-tb;text-anchor:start;fill:#4b0080;fill-opacity:1;stroke-width:0.07406633px"
         d="m 44.219677,78.049955 c -0.272564,0 -0.426622,0.162946 -0.426622,0.462174 l 0.003,0.27849 -0.20146,0 -0.01185,0.0948 0.01185,0.01481 0.20146,0 0.003,0.666598 -0.0089,0.56883 0.151095,0 -0.0089,-0.583644 0.0059,-0.651784 0.358481,0 0.01185,-0.09481 -0.0089,-0.01481 -0.361444,0 0.003,-0.296265 c 0,-0.213312 0.09481,-0.325893 0.269602,-0.325893 0.0711,0 0.130357,0.01185 0.201461,0.04148 l 0.01481,-0.0089 0.01185,-0.124431 c -0.07999,-0.01778 -0.151096,-0.02666 -0.219237,-0.02666 z"
         inkscape:connector-curvature="0" />
    </g>
    <g
       transform="matrix(9.5814393,0,0,9.5814393,-243.62911,235.5952)"
       id="text2400"
       style="font-style:normal;font-variant:normal;font-weight:300;font-stretch:normal;font-size:2.06427693px;line-height:125%;font-family:'Alegreya Sans';-inkscape-font-specification:'Alegreya Sans, Light';text-indent:0;text-align:start;text-decoration:none;text-decoration-line:none;text-decoration-style:solid;text-decoration-color:#000000;letter-spacing:0px;word-spacing:0px;text-transform:none;direction:ltr;writing-mode:lr-tb;baseline-shift:baseline;text-anchor:start;white-space:normal;opacity:1;fill:#a80030;fill-opacity:1;stroke:none;stroke-width:0.36179897;stroke-linecap:round;stroke-linejoin:round;stroke-miterlimit:4;stroke-dasharray:none;stroke-dashoffset:0;stroke-opacity:1"
       aria-label="Hsinchu, Taiwan">
      <path
         id="path2559"
         style="font-style:normal;font-variant:normal;font-weight:300;font-stretch:normal;font-size:2.06427693px;line-height:125%;font-family:'Alegreya Sans';-inkscape-font-specification:'Alegreya Sans, Light';text-indent:0;text-align:start;text-decoration:none;text-decoration-line:none;text-decoration-style:solid;text-decoration-color:#000000;letter-spacing:0px;word-spacing:0px;text-transform:none;direction:ltr;writing-mode:lr-tb;text-anchor:start;white-space:normal;fill:#a80030;fill-opacity:1;stroke:none;stroke-width:0.36179897;stroke-linecap:round;stroke-linejoin:round;stroke-miterlimit:4;stroke-dasharray:none;stroke-dashoffset:0;stroke-opacity:1"
         d="m 35.587761,81.915725 0.0041,-0.91241 -0.109407,0 0.0041,0.602769 -0.390149,0.0021 -0.379827,-0.0021 0.0041,-0.602769 -0.109407,0 0.0062,0.918603 -0.0062,0.40047 0.107343,0 -0.0041,-0.406663 0.0021,-0.214685 0.369506,-0.0021 0.40047,0.0021 0.0021,0.220878 -0.0062,0.40047 0.107343,0 z"
         inkscape:connector-curvature="0" />
      <path
         id="path2561"
         style="font-style:normal;font-variant:normal;font-weight:300;font-stretch:normal;font-size:2.06427693px;line-height:125%;font-family:'Alegreya Sans';-inkscape-font-specification:'Alegreya Sans, Light';text-indent:0;text-align:start;text-decoration:none;text-decoration-line:none;text-decoration-style:solid;text-decoration-color:#000000;letter-spacing:0px;word-spacing:0px;text-transform:none;direction:ltr;writing-mode:lr-tb;text-anchor:start;white-space:normal;fill:#a80030;fill-opacity:1;stroke:none;stroke-width:0.36179897;stroke-linecap:round;stroke-linejoin:round;stroke-miterlimit:4;stroke-dasharray:none;stroke-dashoffset:0;stroke-opacity:1"
         d="m 36.160276,81.37282 c -0.185785,0 -0.301385,0.107343 -0.301385,0.251842 0,0.28487 0.44382,0.245649 0.44382,0.456205 0,0.0867 -0.07638,0.1734 -0.210556,0.1734 -0.07638,0 -0.165143,-0.03096 -0.235328,-0.08876 l -0.01445,0.0083 -0.01445,0.09289 c 0.07638,0.04335 0.169271,0.06812 0.258035,0.06812 0.196106,0 0.315834,-0.125921 0.315834,-0.27042 0,-0.276613 -0.443819,-0.237392 -0.443819,-0.447948 0,-0.0867 0.07431,-0.163078 0.191977,-0.163078 0.0578,0 0.119728,0.01651 0.187849,0.05574 l 0.01858,-0.0041 0.01651,-0.08876 c -0.07431,-0.03096 -0.148628,-0.04335 -0.21262,-0.04335 z"
         inkscape:connector-curvature="0" />
      <path
         id="path2563"
         style="font-style:normal;font-variant:normal;font-weight:300;font-stretch:normal;font-size:2.06427693px;line-height:125%;font-family:'Alegreya Sans';-inkscape-font-specification:'Alegreya Sans, Light';text-indent:0;text-align:start;text-decoration:none;text-decoration-line:none;text-decoration-style:solid;text-decoration-color:#000000;letter-spacing:0px;word-spacing:0px;text-transform:none;direction:ltr;writing-mode:lr-tb;text-anchor:start;white-space:normal;fill:#a80030;fill-opacity:1;stroke:none;stroke-width:0.36179897;stroke-linecap:round;stroke-linejoin:round;stroke-miterlimit:4;stroke-dasharray:none;stroke-dashoffset:0;stroke-opacity:1"
         d="m 36.738854,80.984736 c -0.04335,0 -0.07019,0.0289 -0.07019,0.07225 0,0.04335 0.02477,0.06812 0.06812,0.06812 0.04335,0 0.07019,-0.02684 0.07019,-0.07225 0,-0.04129 -0.02477,-0.06812 -0.06812,-0.06812 z m 0.04335,0.928925 0.0083,-0.534648 -0.107343,0.01239 0.0062,0.528455 -0.0062,0.402534 0.105279,0 z"
         inkscape:connector-curvature="0" />
      <path
         id="path2565"
         style="font-style:normal;font-variant:normal;font-weight:300;font-stretch:normal;font-size:2.06427693px;line-height:125%;font-family:'Alegreya Sans';-inkscape-font-specification:'Alegreya Sans, Light';text-indent:0;text-align:start;text-decoration:none;text-decoration-line:none;text-decoration-style:solid;text-decoration-color:#000000;letter-spacing:0px;word-spacing:0px;text-transform:none;direction:ltr;writing-mode:lr-tb;text-anchor:start;white-space:normal;fill:#a80030;fill-opacity:1;stroke:none;stroke-width:0.36179897;stroke-linecap:round;stroke-linejoin:round;stroke-miterlimit:4;stroke-dasharray:none;stroke-dashoffset:0;stroke-opacity:1"
         d="m 37.751317,82.322388 0.107342,0 -0.0041,-0.406663 0.0021,-0.264227 c 0.0021,-0.177528 -0.101149,-0.280742 -0.293127,-0.280742 -0.09289,0.01032 -0.198171,0.06812 -0.291063,0.158949 l -0.01032,0 0,-0.150692 -0.101149,0.01239 0.0041,0.528455 -0.0062,0.402534 0.107342,0 -0.0062,-0.408727 0.0021,-0.278678 c 0.09496,-0.109406 0.204364,-0.171335 0.303449,-0.171335 0.125921,0 0.194042,0.07844 0.191978,0.208492 z"
         inkscape:connector-curvature="0" />
      <path
         id="path2567"
         style="font-style:normal;font-variant:normal;font-weight:300;font-stretch:normal;font-size:2.06427693px;line-height:125%;font-family:'Alegreya Sans';-inkscape-font-specification:'Alegreya Sans, Light';text-indent:0;text-align:start;text-decoration:none;text-decoration-line:none;text-decoration-style:solid;text-decoration-color:#000000;letter-spacing:0px;word-spacing:0px;text-transform:none;direction:ltr;writing-mode:lr-tb;text-anchor:start;white-space:normal;fill:#a80030;fill-opacity:1;stroke:none;stroke-width:0.36179897;stroke-linecap:round;stroke-linejoin:round;stroke-miterlimit:4;stroke-dasharray:none;stroke-dashoffset:0;stroke-opacity:1"
         d="m 38.520809,81.368692 c -0.241521,0 -0.392213,0.191978 -0.392213,0.491298 0,0.291063 0.146564,0.474783 0.383956,0.474783 0.09289,0 0.189913,-0.0289 0.262163,-0.06812 l 0.01032,-0.09083 -0.01445,-0.0083 c -0.07019,0.04748 -0.165142,0.07844 -0.247713,0.07844 -0.181656,0 -0.293127,-0.152756 -0.293127,-0.390148 0,-0.245649 0.111471,-0.396341 0.288998,-0.396341 0.08051,0 0.165143,0.03303 0.225007,0.07431 l 0.01651,-0.0021 0.02064,-0.09289 c -0.06812,-0.04129 -0.169271,-0.07019 -0.260099,-0.07019 z"
         inkscape:connector-curvature="0" />
      <path
         id="path2569"
         style="font-style:normal;font-variant:normal;font-weight:300;font-stretch:normal;font-size:2.06427693px;line-height:125%;font-family:'Alegreya Sans';-inkscape-font-specification:'Alegreya Sans, Light';text-indent:0;text-align:start;text-decoration:none;text-decoration-line:none;text-decoration-style:solid;text-decoration-color:#000000;letter-spacing:0px;word-spacing:0px;text-transform:none;direction:ltr;writing-mode:lr-tb;text-anchor:start;white-space:normal;fill:#a80030;fill-opacity:1;stroke:none;stroke-width:0.36179897;stroke-linecap:round;stroke-linejoin:round;stroke-miterlimit:4;stroke-dasharray:none;stroke-dashoffset:0;stroke-opacity:1"
         d="m 39.430381,81.370756 c -0.09083,0.01032 -0.196107,0.06812 -0.288999,0.158949 l -0.01239,0 0.0062,-0.65644 -0.107342,0.01032 0.0062,1.036267 -0.0062,0.402534 0.105278,0 -0.0062,-0.408727 0.0021,-0.278678 c 0.09702,-0.109406 0.202299,-0.171335 0.303449,-0.171335 0.125921,0 0.194042,0.07844 0.194042,0.208492 l -0.0083,0.650248 0.107342,0 -0.0041,-0.406663 0.0041,-0.264227 c 0.0021,-0.177528 -0.101149,-0.280742 -0.295191,-0.280742 z"
         inkscape:connector-curvature="0" />
      <path
         id="path2571"
         style="font-style:normal;font-variant:normal;font-weight:300;font-stretch:normal;font-size:2.06427693px;line-height:125%;font-family:'Alegreya Sans';-inkscape-font-specification:'Alegreya Sans, Light';text-indent:0;text-align:start;text-decoration:none;text-decoration-line:none;text-decoration-style:solid;text-decoration-color:#000000;letter-spacing:0px;word-spacing:0px;text-transform:none;direction:ltr;writing-mode:lr-tb;text-anchor:start;white-space:normal;fill:#a80030;fill-opacity:1;stroke:none;stroke-width:0.36179897;stroke-linecap:round;stroke-linejoin:round;stroke-miterlimit:4;stroke-dasharray:none;stroke-dashoffset:0;stroke-opacity:1"
         d="m 40.738455,81.379013 -0.103214,0.01239 0,0.693597 c -0.09496,0.101149 -0.196106,0.154821 -0.291063,0.154821 -0.119728,0 -0.183721,-0.07638 -0.181656,-0.208492 l 0.0062,-0.652312 -0.107342,0.01239 0.0041,0.435562 -0.0021,0.225006 c -0.0021,0.179593 0.09702,0.280742 0.278678,0.280742 0.09908,-0.01032 0.19817,-0.06399 0.291063,-0.156885 l 0.01238,0 c 0.0062,0.10115 0.04954,0.152757 0.127985,0.154821 0.03716,-0.0021 0.07431,-0.01445 0.105279,-0.03303 l 0.01239,-0.06812 -0.01445,-0.01032 c -0.0289,0.01445 -0.05573,0.02064 -0.07638,0.02064 -0.04748,0 -0.06812,-0.0289 -0.06812,-0.10115 z"
         inkscape:connector-curvature="0" />
      <path
         id="path2573"
         style="font-style:normal;font-variant:normal;font-weight:300;font-stretch:normal;font-size:2.06427693px;line-height:125%;font-family:'Alegreya Sans';-inkscape-font-specification:'Alegreya Sans, Light';text-indent:0;text-align:start;text-decoration:none;text-decoration-line:none;text-decoration-style:solid;text-decoration-color:#000000;letter-spacing:0px;word-spacing:0px;text-transform:none;direction:ltr;writing-mode:lr-tb;text-anchor:start;white-space:normal;fill:#a80030;fill-opacity:1;stroke:none;stroke-width:0.36179897;stroke-linecap:round;stroke-linejoin:round;stroke-miterlimit:4;stroke-dasharray:none;stroke-dashoffset:0;stroke-opacity:1"
         d="m 41.190144,82.186145 c -0.0289,0.01032 -0.05367,0.02477 -0.07431,0.04129 l 0,0.01239 c 0.04129,0.02271 0.06399,0.05161 0.06399,0.08463 0,0.05574 -0.03922,0.115599 -0.113535,0.171335 l 0,0.01032 0.03922,0.03716 c 0.109407,-0.08257 0.167206,-0.163078 0.167206,-0.235327 0,-0.04954 -0.03096,-0.09083 -0.08257,-0.121793 z"
         inkscape:connector-curvature="0" />
      <path
         id="path2575"
         style="font-style:normal;font-variant:normal;font-weight:300;font-stretch:normal;font-size:2.06427693px;line-height:125%;font-family:'Alegreya Sans';-inkscape-font-specification:'Alegreya Sans, Light';text-indent:0;text-align:start;text-decoration:none;text-decoration-line:none;text-decoration-style:solid;text-decoration-color:#000000;letter-spacing:0px;word-spacing:0px;text-transform:none;direction:ltr;writing-mode:lr-tb;text-anchor:start;white-space:normal;fill:#a80030;fill-opacity:1;stroke:none;stroke-width:0.36179897;stroke-linecap:round;stroke-linejoin:round;stroke-miterlimit:4;stroke-dasharray:none;stroke-dashoffset:0;stroke-opacity:1"
         d="m 42.680165,81.0157 -0.01032,-0.01238 -0.875253,0 -0.01032,0.08257 0.0083,0.01238 0.225006,-0.0062 0.161014,0 0.0062,0.829839 -0.0062,0.40047 0.107342,0 -0.0041,-0.406663 0.0062,-0.823646 0.161013,0 0.220878,0.0062 z"
         inkscape:connector-curvature="0" />
      <path
         id="path2577"
         style="font-style:normal;font-variant:normal;font-weight:300;font-stretch:normal;font-size:2.06427693px;line-height:125%;font-family:'Alegreya Sans';-inkscape-font-specification:'Alegreya Sans, Light';text-indent:0;text-align:start;text-decoration:none;text-decoration-line:none;text-decoration-style:solid;text-decoration-color:#000000;letter-spacing:0px;word-spacing:0px;text-transform:none;direction:ltr;writing-mode:lr-tb;text-anchor:start;white-space:normal;fill:#a80030;fill-opacity:1;stroke:none;stroke-width:0.36179897;stroke-linecap:round;stroke-linejoin:round;stroke-miterlimit:4;stroke-dasharray:none;stroke-dashoffset:0;stroke-opacity:1"
         d="m 43.0498,81.368692 c -0.109406,0 -0.222942,0.04748 -0.332348,0.134178 l 0.01651,0.07638 0.01239,0.0062 c 0.103214,-0.08876 0.200235,-0.134178 0.288998,-0.134178 0.1156,0 0.181657,0.06399 0.181657,0.181656 l -0.0041,0.167207 -0.34267,0.08051 c -0.115599,0.02684 -0.181656,0.09496 -0.181656,0.208492 0,0.152757 0.09702,0.245649 0.264227,0.245649 0.08464,-0.01651 0.169271,-0.07431 0.243585,-0.158949 l 0.01032,0 c 0.0041,0.103214 0.04954,0.152757 0.13005,0.154821 0.03716,-0.0021 0.07431,-0.01445 0.105278,-0.03303 l 0.01239,-0.06812 -0.01445,-0.01032 c -0.0289,0.01445 -0.05574,0.02064 -0.07844,0.02064 -0.04954,0 -0.06812,-0.02684 -0.06812,-0.09702 0,-0.06193 0.02271,-0.470656 0.02271,-0.532584 0,-0.152756 -0.09908,-0.24152 -0.266292,-0.24152 z m 0.161014,0.507812 -0.0083,0.200235 c -0.08051,0.105278 -0.169271,0.167206 -0.253906,0.167206 -0.10115,0 -0.163078,-0.06193 -0.163078,-0.167206 0,-0.06812 0.03716,-0.107343 0.105278,-0.123857 z"
         inkscape:connector-curvature="0" />
      <path
         id="path2579"
         style="font-style:normal;font-variant:normal;font-weight:300;font-stretch:normal;font-size:2.06427693px;line-height:125%;font-family:'Alegreya Sans';-inkscape-font-specification:'Alegreya Sans, Light';text-indent:0;text-align:start;text-decoration:none;text-decoration-line:none;text-decoration-style:solid;text-decoration-color:#000000;letter-spacing:0px;word-spacing:0px;text-transform:none;direction:ltr;writing-mode:lr-tb;text-anchor:start;white-space:normal;fill:#a80030;fill-opacity:1;stroke:none;stroke-width:0.36179897;stroke-linecap:round;stroke-linejoin:round;stroke-miterlimit:4;stroke-dasharray:none;stroke-dashoffset:0;stroke-opacity:1"
         d="m 43.762234,80.984736 c -0.04335,0 -0.07019,0.0289 -0.07019,0.07225 0,0.04335 0.02477,0.06812 0.06812,0.06812 0.04335,0 0.07019,-0.02684 0.07019,-0.07225 0,-0.04129 -0.02477,-0.06812 -0.06812,-0.06812 z m 0.04335,0.928925 0.0083,-0.534648 -0.107343,0.01239 0.0062,0.528455 -0.0062,0.402534 0.105278,0 z"
         inkscape:connector-curvature="0" />
      <path
         id="path2581"
         style="font-style:normal;font-variant:normal;font-weight:300;font-stretch:normal;font-size:2.06427693px;line-height:125%;font-family:'Alegreya Sans';-inkscape-font-specification:'Alegreya Sans, Light';text-indent:0;text-align:start;text-decoration:none;text-decoration-line:none;text-decoration-style:solid;text-decoration-color:#000000;letter-spacing:0px;word-spacing:0px;text-transform:none;direction:ltr;writing-mode:lr-tb;text-anchor:start;white-space:normal;fill:#a80030;fill-opacity:1;stroke:none;stroke-width:0.36179897;stroke-linecap:round;stroke-linejoin:round;stroke-miterlimit:4;stroke-dasharray:none;stroke-dashoffset:0;stroke-opacity:1"
         d="m 44.157865,81.486356 -0.02477,-0.109407 -0.09909,0.01032 0.27042,0.935118 0.107342,0 0.258035,-0.792683 0.01239,0 0.222942,0.792683 0.105278,0 0.317898,-0.939246 -0.09909,0 -0.0289,0.107342 -0.231199,0.708047 -0.01032,0 -0.200235,-0.712175 -0.02271,-0.103214 -0.107342,0 -0.03097,0.107342 -0.229134,0.708047 -0.01031,0 z"
         inkscape:connector-curvature="0" />
      <path
         id="path2583"
         style="font-style:normal;font-variant:normal;font-weight:300;font-stretch:normal;font-size:2.06427693px;line-height:125%;font-family:'Alegreya Sans';-inkscape-font-specification:'Alegreya Sans, Light';text-indent:0;text-align:start;text-decoration:none;text-decoration-line:none;text-decoration-style:solid;text-decoration-color:#000000;letter-spacing:0px;word-spacing:0px;text-transform:none;direction:ltr;writing-mode:lr-tb;text-anchor:start;white-space:normal;fill:#a80030;fill-opacity:1;stroke:none;stroke-width:0.36179897;stroke-linecap:round;stroke-linejoin:round;stroke-miterlimit:4;stroke-dasharray:none;stroke-dashoffset:0;stroke-opacity:1"
         d="m 45.779322,81.368692 c -0.109407,0 -0.222942,0.04748 -0.332348,0.134178 l 0.01651,0.07638 0.01239,0.0062 c 0.103214,-0.08876 0.200235,-0.134178 0.288999,-0.134178 0.1156,0 0.181657,0.06399 0.181657,0.181656 l -0.0041,0.167207 -0.34267,0.08051 c -0.115599,0.02684 -0.181656,0.09496 -0.181656,0.208492 0,0.152757 0.09702,0.245649 0.264227,0.245649 0.08463,-0.01651 0.169271,-0.07431 0.243585,-0.158949 l 0.01032,0 c 0.0041,0.103214 0.04954,0.152757 0.13005,0.154821 0.03716,-0.0021 0.07431,-0.01445 0.105278,-0.03303 l 0.01239,-0.06812 -0.01445,-0.01032 c -0.0289,0.01445 -0.05573,0.02064 -0.07844,0.02064 -0.04954,0 -0.06812,-0.02684 -0.06812,-0.09702 0,-0.06193 0.02271,-0.470656 0.02271,-0.532584 0,-0.152756 -0.09909,-0.24152 -0.266292,-0.24152 z m 0.161014,0.507812 -0.0083,0.200235 c -0.08051,0.105278 -0.169271,0.167206 -0.253906,0.167206 -0.10115,0 -0.163078,-0.06193 -0.163078,-0.167206 0,-0.06812 0.03716,-0.107343 0.105278,-0.123857 z"
         inkscape:connector-curvature="0" />
      <path
         id="path2585"
         style="font-style:normal;font-variant:normal;font-weight:300;font-stretch:normal;font-size:2.06427693px;line-height:125%;font-family:'Alegreya Sans';-inkscape-font-specification:'Alegreya Sans, Light';text-indent:0;text-align:start;text-decoration:none;text-decoration-line:none;text-decoration-style:solid;text-decoration-color:#000000;letter-spacing:0px;word-spacing:0px;text-transform:none;direction:ltr;writing-mode:lr-tb;text-anchor:start;white-space:normal;fill:#a80030;fill-opacity:1;stroke:none;stroke-width:0.36179897;stroke-linecap:round;stroke-linejoin:round;stroke-miterlimit:4;stroke-dasharray:none;stroke-dashoffset:0;stroke-opacity:1"
         d="m 47.028468,82.322388 0.107343,0 -0.0041,-0.406663 0.0021,-0.264227 c 0.0021,-0.177528 -0.10115,-0.280742 -0.293128,-0.280742 -0.09289,0.01032 -0.19817,0.06812 -0.291063,0.158949 l -0.01032,0 0,-0.150692 -0.10115,0.01239 0.0041,0.528455 -0.0062,0.402534 0.107342,0 -0.0062,-0.408727 0.0021,-0.278678 c 0.09496,-0.109406 0.204363,-0.171335 0.303448,-0.171335 0.125921,0 0.194042,0.07844 0.191978,0.208492 z"
         inkscape:connector-curvature="0" />
    </g>
    <g
       aria-label="18"
       style="font-style:italic;font-variant:normal;font-weight:500;font-stretch:normal;font-size:10.58333302px;line-height:125%;font-family:'Alegreya Sans';-inkscape-font-specification:'Alegreya Sans, Medium Italic';text-align:start;letter-spacing:0px;word-spacing:0px;writing-mode:lr-tb;text-anchor:start;opacity:1;fill:#a80030;fill-opacity:1;stroke:none;stroke-width:0.119;stroke-linecap:butt;stroke-linejoin:bevel;stroke-miterlimit:4;stroke-dasharray:none;stroke-dashoffset:0;stroke-opacity:1"
       id="text2623"
       transform="matrix(2.8174778,0,0.32229874,2.8174778,57.470734,752.96818)">
      <path
         d="m 38.168791,83.401873 -0.127,-0.105833 -2.338916,0.66675 -0.09525,0.814916 0.08467,0.05292 1.354667,-0.359833 -0.254,2.0955 -0.439209,2.934229 1.037167,0 0.343959,-3.050646 z"
         style="font-style:italic;font-variant:normal;font-weight:500;font-stretch:normal;font-size:10.58333302px;font-family:'Alegreya Sans';-inkscape-font-specification:'Alegreya Sans, Medium Italic';text-align:start;writing-mode:lr-tb;text-anchor:start;fill:#a80030;fill-opacity:1;stroke:none;stroke-width:0.119;stroke-linecap:butt;stroke-linejoin:bevel;stroke-miterlimit:4;stroke-dasharray:none;stroke-dashoffset:0;stroke-opacity:1"
         id="path2625"
         inkscape:connector-curvature="0"
         sodipodi:nodetypes="ccccccccccc" />
      <path
         d="m 41.831782,83.224602 c -1.185333,0 -1.989667,0.73025 -1.989667,1.778 0,0.740834 0.381,1.0795 0.846667,1.344084 l -0.01058,0.05292 c -0.762,0.338667 -1.407584,0.762 -1.407584,1.629834 0,0.931333 0.751417,1.555749 1.93675,1.555749 1.312334,0 2.169583,-0.772583 2.169583,-1.841499 0,-0.8255 -0.486833,-1.17475 -1.037166,-1.4605 l 0.01058,-0.05292 c 0.582084,-0.296333 1.17475,-0.751417 1.17475,-1.576917 0,-0.899583 -0.66675,-1.42875 -1.693333,-1.42875 z m -0.02117,0.719667 c 0.5715,0 0.878417,0.296333 0.878417,0.804333 0,0.645584 -0.508,0.963084 -1.058333,1.2065 -0.529167,-0.22225 -0.941917,-0.455083 -0.941917,-1.037166 0,-0.5715 0.455083,-0.973667 1.121833,-0.973667 z m -0.433916,2.751667 c 0.66675,0.275166 1.143,0.508 1.143,1.11125 0,0.592666 -0.518584,1.068916 -1.291167,1.068916 -0.6985,0 -1.0795,-0.381 -1.0795,-0.973666 0,-0.709084 0.592667,-0.973667 1.227667,-1.2065 z"
         style="font-style:italic;font-variant:normal;font-weight:500;font-stretch:normal;font-size:10.58333302px;font-family:'Alegreya Sans';-inkscape-font-specification:'Alegreya Sans, Medium Italic';text-align:start;writing-mode:lr-tb;text-anchor:start;fill:#a80030;fill-opacity:1;stroke:none;stroke-width:0.119;stroke-linecap:butt;stroke-linejoin:bevel;stroke-miterlimit:4;stroke-dasharray:none;stroke-dashoffset:0;stroke-opacity:1"
         id="path2627"
         inkscape:connector-curvature="0" />
    </g>
  </g>
</svg>
