<?xml version="1.0" encoding="UTF-8" standalone="no"?>
<svg
   xmlns:dc="http://purl.org/dc/elements/1.1/"
   xmlns:cc="http://creativecommons.org/ns#"
   xmlns:rdf="http://www.w3.org/1999/02/22-rdf-syntax-ns#"
   xmlns:svg="http://www.w3.org/2000/svg"
   xmlns="http://www.w3.org/2000/svg"
   version="1.1"
   id="svg3092"
   height="64"
   width="64">
  <defs
     id="defs3094" />
  <metadata
     id="metadata3097">
    <rdf:RDF>
      <cc:Work
         rdf:about="">
        <dc:format>image/svg+xml</dc:format>
        <dc:type
           rdf:resource="http://purl.org/dc/dcmitype/StillImage" />
        <dc:title></dc:title>
      </cc:Work>
    </rdf:RDF>
  </metadata>
  <g
     transform="translate(-176.632,-596.65917)"
     id="layer1">
    <g
       style="fill:#b3b3b3;fill-opacity:1"
       id="g93"
       transform="matrix(1.1280316,0,0,1.1280316,139.27611,565.67327)">
      <path
         style="clip-rule:evenodd;fill:#b3b3b3;fill-opacity:1;fill-rule:evenodd"
         id="path95"
         d="m 40.749,50.652 h 5.688 v -8.28 h 10.512 v -3.168 h 4.896 v 11.448 h 4.968 L 50.468,63.18 V 58.5 C 47.156,57.708 40.46,57.06 40.749,50.652 Z M 56.444,49.86 v 0 c -0.216,0 -0.36,0.216 -0.36,0.432 0,0.216 0.144,0.36 0.36,0.36 0.216,0 0.432,-0.144 0.432,-0.36 0,-0.216 -0.216,-0.432 -0.432,-0.432 z m 0,-1.152 v 0 c -0.216,0 -0.36,0.144 -0.36,0.36 0,0.216 0.144,0.432 0.36,0.432 0.216,0 0.432,-0.216 0.432,-0.432 0,-0.216 -0.216,-0.36 -0.432,-0.36 z m 0,-1.224 v 0 c -0.216,0 -0.36,0.216 -0.36,0.432 0,0.216 0.144,0.36 0.36,0.36 0.216,0 0.432,-0.144 0.432,-0.36 0,-0.216 -0.216,-0.432 -0.432,-0.432 z m 0,-1.151 v 0 c -0.216,0 -0.36,0.144 -0.36,0.36 0,0.216 0.144,0.432 0.36,0.432 0.216,0 0.432,-0.216 0.432,-0.432 0,-0.217 -0.216,-0.36 -0.432,-0.36 z m 0,-1.225 v 0 c -0.216,0 -0.36,0.216 -0.36,0.432 0,0.216 0.144,0.36 0.36,0.36 0.216,0 0.432,-0.144 0.432,-0.36 0,-0.216 -0.216,-0.432 -0.432,-0.432 z m 0,-1.152 v 0 c -0.216,0 -0.36,0.144 -0.36,0.36 0,0.216 0.144,0.432 0.36,0.432 0.216,0 0.432,-0.216 0.432,-0.432 0,-0.216 -0.216,-0.36 -0.432,-0.36 z m 0,-1.224 v 0 c -0.216,0 -0.36,0.216 -0.36,0.432 0,0.216 0.144,0.36 0.36,0.36 0.216,0 0.432,-0.144 0.432,-0.36 0,-0.216 -0.216,-0.432 -0.432,-0.432 z m -8.568,7.92 v 0 h 6.48 V 49.86 h -6.48 z m 10.008,-7.344 v 0 1.008 1.296 0.936 1.296 0.936 h 0.864 1.728 v -0.936 h -1.728 v -1.296 h 1.728 v -0.936 h -1.728 v -1.296 h 1.728 v -1.008 h -1.728 z m -10.008,5.4 v 0 0.792 h 6.48 v -0.792 z m 0,-1.224 v 0 0.792 h 6.48 v -0.792 z m 0,-1.151 v 0 0.792 h 6.48 v -0.792 z m 0,-1.225 v 0 0.864 h 6.48 v -0.864 z m 0,-1.152 v 0 0.792 h 6.48 v -0.792 z m 0,-1.224 v 0 0.864 h 6.48 v -0.864 z" />
      <path
         style="clip-rule:evenodd;fill:#b3b3b3;fill-opacity:1;fill-rule:evenodd"
         id="path97"
         d="M 54.932,64.332 H 75.956 V 70.02 H 55.364 c -0.648,-2.376 -2.088,-3.312 -3.096,-3.815 1.08,-0.433 2.088,-1.297 2.664,-1.873 z m 16.416,4.32 v 0 c 0.864,0 1.512,-0.433 1.512,-1.009 0,-0.647 -0.648,-1.079 -1.512,-1.079 -0.288,0 -0.504,0.071 -0.792,0.144 0,-0.072 0,-0.072 0,-0.144 0,-0.36 0.36,-0.648 0.792,-0.648 0.36,0 0.576,0.144 0.72,0.36 h 0.792 c -0.144,-0.504 -0.72,-0.937 -1.512,-0.937 -0.792,0 -1.44,0.433 -1.44,1.08 0,0.432 0,0.72 0,1.224 0,0.577 0.648,1.009 1.44,1.009 z m 0,-0.648 v 0 c 0.432,0 0.792,-0.144 0.792,-0.432 0,-0.288 -0.36,-0.504 -0.792,-0.504 -0.36,0 -0.72,0.216 -0.72,0.504 0,0.288 0.36,0.432 0.72,0.432 z M 67.82,65.34 v 0 c -0.792,0 -1.44,0.433 -1.44,1.08 0,0.576 0.648,1.008 1.44,1.008 0.288,0 0.576,-0.071 0.792,-0.144 0,0.072 0,0.144 0,0.144 0,0.36 -0.36,0.648 -0.792,0.648 -0.288,0 -0.576,-0.145 -0.72,-0.36 h -0.72 c 0.072,0.576 0.72,0.937 1.44,0.937 0.792,0 1.44,-0.433 1.44,-1.009 0,-0.504 0,-0.792 0,-1.224 0,-0.648 -0.648,-1.08 -1.44,-1.08 z m 0,0.648 v 0 c -0.432,0 -0.72,0.216 -0.72,0.432 0,0.288 0.288,0.504 0.72,0.504 0.432,0 0.72,-0.216 0.72,-0.504 10e-4,-0.216 -0.288,-0.432 -0.72,-0.432 z M 64.148,65.34 v 0 c -0.792,0 -1.44,0.433 -1.44,1.008 0,0.217 0.072,0.433 0.216,0.576 -0.288,0.216 -0.504,0.433 -0.504,0.72 0,0.576 0.792,1.009 1.728,1.009 0.936,0 1.728,-0.433 1.728,-1.009 0,-0.287 -0.216,-0.504 -0.504,-0.72 0.144,-0.144 0.288,-0.359 0.288,-0.576 0,-0.576 -0.72,-1.008 -1.512,-1.008 z m 0,1.8 v 0 c -0.36,0 -0.72,0.217 -0.72,0.504 0,0.217 0.36,0.433 0.72,0.433 0.432,0 0.72,-0.216 0.72,-0.433 0,-0.288 -0.288,-0.504 -0.72,-0.504 z m 0,-1.08 v 0 c -0.36,0 -0.576,0.145 -0.576,0.36 0,0.215 0.216,0.36 0.576,0.36 0.36,0 0.576,-0.145 0.576,-0.36 0,-0.215 -0.216,-0.36 -0.576,-0.36 z M 60.26,65.484 v 0 c -0.072,0.288 -0.576,0.575 -1.152,0.647 0,0.216 0,0.36 0,0.504 h 1.152 v 2.088 h 1.008 V 65.484 Z M 49.604,70.02 v 0 H 46.94 v -3.023 c 1.512,0.863 2.304,1.799 2.664,3.023 z" />
      <path
         style="clip-rule:evenodd;fill:#b3b3b3;fill-opacity:1;fill-rule:evenodd"
         id="path99"
         d="m 77.541,50.652 h 4.032 c 0,1.296 -1.296,2.376 -2.52,3.312 0.36,0.072 0.648,0.432 0.648,0.792 0,0.288 -0.144,0.504 -0.36,0.648 0.504,0.144 0.864,0.576 0.864,1.08 0,0.576 -0.288,1.008 -0.792,1.151 0.216,0.145 0.36,0.433 0.36,0.648 0,0.432 -0.36,0.792 -0.792,0.792 -0.432,0 -0.792,-0.36 -0.792,-0.792 0,-0.216 0.144,-0.504 0.36,-0.648 -0.432,-0.144 -0.792,-0.576 -0.792,-1.151 0,-0.504 0.288,-0.864 0.792,-1.08 -0.216,-0.144 -0.36,-0.36 -0.36,-0.648 h -0.072 v 0.072 H 77.9 c -2.088,0.504 -9.504,3.672 -3.744,7.92 H 56.804 l 16.128,-12.096 -5.04,-7.2 V 50.22 H 62.564 V 39.204 h 5.328 v 2.232 l 4.248,-2.952 7.488,10.728 z m 1.295,3.528 v 0 c -0.144,0.144 -0.288,0.288 -0.432,0.36 0,0.072 -0.072,0.144 -0.072,0.216 0,0.288 0.288,0.576 0.576,0.576 0.36,0 0.576,-0.288 0.576,-0.576 0,-0.288 -0.216,-0.576 -0.576,-0.576 z m 0.144,3.528 v 0 c -0.288,0 -0.576,0.288 -0.576,0.576 0,0.359 0.288,0.576 0.576,0.576 0.288,0 0.576,-0.217 0.576,-0.576 0,-0.288 -0.288,-0.576 -0.576,-0.576 z m 0,-2.16 v 0 c -0.576,0 -1.008,0.36 -1.008,0.936 0,0.576 0.432,1.08 1.008,1.08 0.576,0 1.008,-0.504 1.008,-1.08 0,-0.576 -0.432,-0.936 -1.008,-0.936 z M 71.276,43.38 v 0 l 2.16,5.472 0.648,-0.504 -0.504,-1.296 0.72,-0.576 1.08,0.936 0.648,-0.432 -4.248,-3.96 z m 1.224,1.44 v 0 l 0.72,1.512 0.504,-0.36 z m -7.416,0.792 v 0 c -0.432,-0.288 -0.936,-0.576 -0.936,-1.008 0,-0.36 0.36,-0.72 0.792,-0.72 0.36,0 0.72,0.36 0.72,0.72 h 0.72 c -0.072,-0.864 -0.72,-1.512 -1.44,-1.512 -0.792,0 -1.512,0.72 -1.44,1.584 0,0.864 0.432,1.296 1.44,1.8 0.504,0.216 0.72,0.504 0.72,0.936 0,0.432 -0.36,0.792 -0.72,0.792 -0.432,0 -0.792,-0.36 -0.792,-0.792 H 63.5 c 0.072,0.936 0.648,1.584 1.44,1.584 0.792,0 1.368,-0.648 1.44,-1.584 0,-0.936 -0.288,-1.296 -1.296,-1.8 z" />
      <path
         style="clip-rule:evenodd;fill:#b3b3b3;fill-opacity:1;fill-rule:evenodd"
         id="path101"
         d="m 47.012,66.132 c -0.792,-0.359 -1.08,-2.664 -0.36,-4.32 0.144,-0.216 0.504,-0.359 0.72,-0.144 l 2.736,3.313 20.664,-15.768 1.008,1.224 -20.592,15.911 1.8,1.513 c -0.792,0.647 -1.8,1.439 -2.592,2.088 -0.72,-2.233 -2.016,-3.241 -3.384,-3.817 z" />
      <polygon
         style="clip-rule:evenodd;fill:#b3b3b3;fill-opacity:1;fill-rule:evenodd"
         id="polygon103"
         points="51.908,72.252 50.756,70.452 53.42,68.436 54.788,70.164 " />
      <path
         style="clip-rule:evenodd;fill:#b3b3b3;fill-opacity:1;fill-rule:evenodd"
         id="path105"
         d="m 61.268,33.372 c 12.312,0 22.32,10.08 22.32,22.464 0,12.383 -10.008,22.463 -22.32,22.463 -12.384,0 -22.392,-10.08 -22.392,-22.463 0,-12.384 10.008,-22.464 22.392,-22.464 z m 0,0.288 v 0 c -12.24,0 -22.176,9.936 -22.176,22.176 0,12.24 9.936,22.175 22.176,22.175 12.24,0 22.176,-9.936 22.176,-22.175 0,-12.24 -9.936,-22.176 -22.176,-22.176 z" />
      <path
         style="clip-rule:evenodd;fill:#b3b3b3;fill-opacity:1;fill-rule:evenodd"
         id="path107"
         d="m 61.268,33.372 c 12.312,0 22.32,10.08 22.32,22.464 0,12.383 -10.008,22.463 -22.32,22.463 -12.384,0 -22.392,-10.08 -22.392,-22.463 0,-12.384 10.008,-22.464 22.392,-22.464 z m 0,0.288 v 0 c -12.24,0 -22.176,9.936 -22.176,22.176 0,12.24 9.936,22.175 22.176,22.175 12.24,0 22.176,-9.936 22.176,-22.175 0,-12.24 -9.936,-22.176 -22.176,-22.176 z" />
      <path
         style="clip-rule:evenodd;fill:#b3b3b3;fill-opacity:1;fill-rule:evenodd"
         id="path109"
         d="m 62.42,27.541 v 2.88 c 0.216,0 0.504,0 0.792,0 L 63.5,27.613 c 0.72,0 1.152,0.072 1.8,0.144 l -0.288,2.88 c 0.288,0 0.576,0.072 0.792,0.072 l 0.648,-2.736 c 0.648,0.072 1.08,0.216 1.8,0.36 l -0.576,2.808 c 0.216,0 0.504,0.072 0.72,0.144 l 0.864,-2.664 c 0.72,0.216 1.08,0.36 1.8,0.576 l -0.864,2.664 c 0.216,0.072 0.504,0.216 0.72,0.288 l 1.152,-2.592 c 0.648,0.288 1.008,0.432 1.656,0.792 l -1.08,2.52 c 0.216,0.144 0.504,0.288 0.72,0.36 l 1.368,-2.376 c 0.648,0.288 1.008,0.504 1.584,0.864 l -1.368,2.448 c 0.288,0.144 0.504,0.288 0.72,0.432 l 1.584,-2.232 c 0.576,0.36 0.936,0.576 1.512,1.008 l -1.584,2.304 c 0.216,0.216 0.432,0.36 0.648,0.504 l 1.8,-2.088 c 0.576,0.432 0.864,0.72 1.368,1.224 l -1.8,2.088 c 0.216,0.216 0.36,0.432 0.576,0.576 l 2.088,-1.872 c 0.504,0.576 0.72,0.864 1.224,1.368 l -2.088,1.944 c 0.216,0.144 0.36,0.36 0.576,0.576 l 2.232,-1.656 c 0.432,0.576 0.648,0.936 1.08,1.512 l -2.232,1.656 c 0.144,0.216 0.288,0.504 0.432,0.72 l 2.448,-1.44 c 0.36,0.648 0.576,1.008 0.864,1.584 l -2.376,1.44 c 0.144,0.216 0.288,0.504 0.36,0.72 l 2.592,-1.152 c 0.288,0.648 0.432,1.008 0.72,1.656 l -2.52,1.152 c 0.072,0.288 0.216,0.504 0.288,0.792 l 2.664,-0.864 c 0.216,0.648 0.36,1.008 0.576,1.728 l -2.664,0.864 c 0.072,0.216 0.216,0.576 0.288,0.864 l 2.664,-0.576 c 0.144,0.72 0.288,1.08 0.36,1.8 l -2.664,0.576 c 0.072,0.288 0.072,0.576 0.144,0.864 l 2.736,-0.288 c 0.072,0.72 0.144,1.08 0.216,1.8 l -2.736,0.36 c 0,0.288 0,0.504 0,0.792 h 2.736 c 0.072,0.36 0.072,0.576 0.072,0.936 0,0.36 0,0.504 0,0.864 l -2.808,0.072 c 0,0.288 0,0.504 0,0.792 l 2.736,0.287 c -0.072,0.721 -0.144,1.08 -0.216,1.801 l -2.736,-0.217 c -0.072,0.288 -0.072,0.576 -0.144,0.792 l 2.664,0.576 c -0.072,0.721 -0.144,1.152 -0.36,1.8 L 86.324,62.1 c -0.072,0.288 -0.144,0.504 -0.288,0.792 l 2.664,0.864 c -0.216,0.72 -0.288,1.08 -0.576,1.729 L 85.46,64.693 c -0.072,0.288 -0.216,0.504 -0.288,0.792 l 2.52,1.151 C 87.404,67.284 87.26,67.644 86.9,68.292 L 84.38,67.14 c -0.072,0.217 -0.216,0.504 -0.36,0.721 l 2.376,1.367 c -0.288,0.648 -0.504,1.009 -0.864,1.584 l -2.448,-1.367 c -0.144,0.216 -0.288,0.504 -0.432,0.72 l 2.232,1.584 c -0.36,0.648 -0.648,0.936 -1.08,1.512 l -2.232,-1.584 c -0.216,0.216 -0.36,0.433 -0.576,0.576 l 2.088,1.872 c -0.432,0.576 -0.72,0.864 -1.224,1.368 l -2.088,-1.8 c -0.216,0.144 -0.36,0.359 -0.576,0.575 l 1.872,2.017 c -0.504,0.504 -0.864,0.792 -1.368,1.224 l -1.872,-2.016 c -0.216,0.144 -0.432,0.288 -0.648,0.504 l 1.656,2.304 c -0.576,0.433 -0.864,0.648 -1.512,1.08 l -1.656,-2.304 c -0.216,0.144 -0.432,0.288 -0.72,0.432 l 1.44,2.448 c -0.576,0.36 -0.936,0.576 -1.584,0.936 l -1.44,-2.447 c -0.216,0.071 -0.504,0.216 -0.72,0.359 l 1.152,2.521 c -0.648,0.288 -1.008,0.504 -1.656,0.72 l -1.224,-2.52 c -0.216,0.071 -0.504,0.216 -0.72,0.287 l 0.864,2.664 c -0.648,0.217 -1.08,0.36 -1.728,0.576 l -0.936,-2.664 c -0.216,0.072 -0.504,0.145 -0.72,0.145 l 0.576,2.808 c -0.72,0.145 -1.08,0.288 -1.8,0.36 l -0.648,-2.736 c -0.216,0 -0.504,0.072 -0.792,0.072 l 0.288,2.88 c -0.648,0.072 -1.08,0.144 -1.8,0.144 l -0.288,-2.808 c -0.288,0 -0.576,0 -0.792,0 v 2.88 c -0.72,0 -1.152,0 -1.872,0 v -2.88 c -0.288,0 -0.504,0 -0.792,0 l -0.288,2.808 c -0.72,0 -1.152,-0.071 -1.872,-0.144 l 0.36,-2.88 c -0.288,0 -0.576,-0.072 -0.864,-0.072 L 56.516,83.7 c -0.72,-0.072 -1.08,-0.216 -1.8,-0.36 l 0.576,-2.808 c -0.216,0 -0.504,-0.072 -0.792,-0.145 l -0.864,2.664 c -0.648,-0.216 -1.08,-0.359 -1.728,-0.576 l 0.864,-2.664 C 52.556,79.74 52.268,79.595 52.052,79.524 L 50.9,82.116 c -0.648,-0.288 -1.08,-0.433 -1.728,-0.792 l 1.152,-2.521 C 50.108,78.659 49.82,78.515 49.604,78.444 L 48.236,80.82 C 47.588,80.532 47.228,80.316 46.652,79.956 L 48.02,77.508 C 47.804,77.364 47.516,77.22 47.3,77.076 l -1.584,2.231 C 45.068,78.948 44.78,78.732 44.204,78.299 L 45.86,75.995 C 45.644,75.85 45.428,75.635 45.212,75.491 L 43.34,77.58 c -0.576,-0.432 -0.864,-0.72 -1.368,-1.224 l 1.872,-2.089 C 43.628,74.123 43.34,73.835 43.196,73.692 l -2.088,1.872 C 40.604,74.988 40.316,74.7 39.884,74.196 l 2.088,-1.872 c -0.216,-0.216 -0.36,-0.433 -0.576,-0.648 l -2.232,1.656 c -0.432,-0.576 -0.648,-0.936 -1.08,-1.512 l 2.232,-1.656 c -0.144,-0.216 -0.288,-0.504 -0.432,-0.72 l -2.448,1.439 C 37.076,70.236 36.86,69.875 36.5,69.299 L 38.948,67.86 C 38.804,67.643 38.66,67.356 38.516,67.139 l -2.52,1.152 c -0.288,-0.648 -0.432,-1.008 -0.72,-1.656 l 2.52,-1.151 C 37.652,65.196 37.58,64.98 37.508,64.692 l -2.664,0.863 c -0.216,-0.647 -0.36,-1.008 -0.576,-1.728 l 2.664,-0.864 C 36.86,62.747 36.716,62.387 36.644,62.099 l -2.664,0.576 c -0.216,-0.72 -0.288,-1.08 -0.36,-1.8 l 2.664,-0.576 C 36.212,60.011 36.14,59.723 36.14,59.435 l -2.736,0.288 c -0.072,-0.72 -0.144,-1.08 -0.216,-1.8 l 2.736,-0.288 c 0,-0.288 0,-0.576 -0.072,-0.864 h -2.736 c 0,-0.36 0,-0.576 0,-0.936 0,-0.36 0,-0.504 0,-0.864 h 2.736 c 0.072,-0.216 0.072,-0.576 0.072,-0.864 l -2.736,-0.288 c 0.072,-0.72 0.072,-1.08 0.216,-1.8 l 2.736,0.288 c 0,-0.288 0.072,-0.648 0.144,-0.864 l -2.736,-0.576 c 0.144,-0.72 0.216,-1.152 0.432,-1.8 l 2.664,0.576 c 0.072,-0.288 0.144,-0.576 0.216,-0.864 l -2.592,-0.864 c 0.216,-0.72 0.288,-1.08 0.576,-1.728 l 2.592,0.864 c 0.144,-0.288 0.216,-0.576 0.36,-0.864 l -2.52,-1.152 c 0.288,-0.648 0.432,-1.008 0.72,-1.656 l 2.52,1.152 c 0.144,-0.216 0.288,-0.504 0.432,-0.72 L 36.5,42.444 c 0.36,-0.648 0.576,-1.008 0.936,-1.584 l 2.376,1.368 c 0.144,-0.216 0.36,-0.504 0.504,-0.72 l -2.232,-1.584 c 0.36,-0.648 0.576,-0.936 1.08,-1.512 l 2.232,1.656 c 0.144,-0.216 0.36,-0.504 0.504,-0.648 l -2.016,-1.872 c 0.432,-0.576 0.72,-0.864 1.224,-1.368 l 2.088,1.872 c 0.144,-0.216 0.36,-0.432 0.576,-0.648 L 41.9,35.388 c 0.504,-0.504 0.792,-0.792 1.368,-1.224 l 1.872,2.088 c 0.216,-0.216 0.432,-0.36 0.648,-0.504 l -1.584,-2.232 c 0.504,-0.432 0.864,-0.648 1.44,-1.08 l 1.656,2.16 c 0.216,-0.144 0.432,-0.288 0.648,-0.432 L 46.58,31.716 c 0.576,-0.36 0.936,-0.576 1.584,-0.936 l 1.368,2.52 c 0.288,-0.144 0.504,-0.288 0.792,-0.36 l -1.152,-2.664 c 0.648,-0.288 1.008,-0.432 1.656,-0.72 l 1.152,2.592 c 0.216,-0.072 0.504,-0.216 0.792,-0.288 l -0.864,-2.664 c 0.648,-0.216 1.08,-0.36 1.728,-0.576 l 0.864,2.664 c 0.288,-0.072 0.576,-0.144 0.792,-0.144 l -0.576,-2.808 c 0.72,-0.144 1.08,-0.288 1.8,-0.36 l 0.576,2.736 c 0.288,0 0.576,-0.072 0.864,-0.072 l -0.36,-2.88 c 0.72,-0.072 1.152,-0.144 1.872,-0.144 l 0.288,2.808 c 0.288,0 0.504,0 0.792,0 v -2.88 c 0.72,0.001 1.152,0.001 1.872,0.001 z m 22.536,28.295 v 0 c 0,-12.888 -10.44,-23.4 -23.256,-23.4 -0.072,0 -0.144,0 -0.216,0 -0.072,0 -0.144,0 -0.216,0 -12.816,0 -23.256,10.512 -23.256,23.4 0,12.887 10.44,23.4 23.256,23.4 0.072,0 0.144,0 0.216,0 0.072,0 0.144,0 0.216,0 12.816,0 23.256,-10.512 23.256,-23.4 z" />
    </g>
  </g>
</svg>
