<?xml version="1.0" encoding="UTF-8" standalone="no"?>
<!-- Generator: Adobe Illustrator 16.0.0, SVG Export Plug-In . SVG Version: 6.00 Build 0)  -->

<svg
   xmlns:dc="http://purl.org/dc/elements/1.1/"
   xmlns:cc="http://creativecommons.org/ns#"
   xmlns:rdf="http://www.w3.org/1999/02/22-rdf-syntax-ns#"
   xmlns:svg="http://www.w3.org/2000/svg"
   xmlns="http://www.w3.org/2000/svg"
   xmlns:sodipodi="http://sodipodi.sourceforge.net/DTD/sodipodi-0.dtd"
   xmlns:inkscape="http://www.inkscape.org/namespaces/inkscape"
   version="1.1"
   id="圖層_1"
   x="0px"
   y="0px"
   width="64"
   height="64"
   viewBox="0 0 64 64"
   enable-background="new 0 0 1024 1024"
   xml:space="preserve"
   inkscape:version="0.91 r13725"
   sodipodi:docname="ocf.svg"><metadata
     id="metadata83"><rdf:RDF><cc:Work
         rdf:about=""><dc:format>image/svg+xml</dc:format><dc:type
           rdf:resource="http://purl.org/dc/dcmitype/StillImage" /><dc:title></dc:title></cc:Work></rdf:RDF></metadata><defs
     id="defs81" /><sodipodi:namedview
     pagecolor="#000000"
     bordercolor="#666666"
     borderopacity="1"
     objecttolerance="10"
     gridtolerance="10"
     guidetolerance="10"
     inkscape:pageopacity="0"
     inkscape:pageshadow="2"
     inkscape:window-width="1086"
     inkscape:window-height="467"
     id="namedview79"
     showgrid="false"
     inkscape:zoom="1.4142136"
     inkscape:cx="6.0208153"
     inkscape:cy="3.2860569"
     inkscape:window-x="132"
     inkscape:window-y="374"
     inkscape:window-maximized="0"
     inkscape:current-layer="圖層_1" /><g
     id="g3"
     transform="matrix(0.27452259,0,0,0.27452259,-2.157336,-107.48424)"
     style="fill:#b3b3b3;fill-opacity:1"><g
       id="g5"
       style="fill:#b3b3b3;fill-opacity:1"><g
         id="g7"
         style="fill:#b3b3b3;fill-opacity:1"><path
           d="M 102.568,420.673 C 66.356,420.673 37,450.029 37,486.241 c 0,36.212 29.356,65.568 65.568,65.568 36.212,0 65.568,-29.355 65.568,-65.568 0.001,-36.212 -29.355,-65.568 -65.568,-65.568 z m 0,109.28 c -24.142,0 -43.712,-19.57 -43.712,-43.712 0,-24.142 19.571,-43.712 43.712,-43.712 24.141,0 43.712,19.57 43.712,43.712 0.001,24.142 -19.57,43.712 -43.712,43.712 z"
           id="path9"
           inkscape:connector-curvature="0"
           style="fill:#b3b3b3;fill-opacity:1" /></g><rect
         x="146.291"
         y="486.241"
         width="21.856001"
         height="109.281"
         id="rect11"
         style="fill:#b3b3b3;fill-opacity:1" /><g
         id="g13"
         style="fill:#b3b3b3;fill-opacity:1"><path
           d="m 168.137,486.241 c 0,-24.142 19.571,-43.712 43.712,-43.712 l 0,-21.855 c -36.212,0 -65.568,29.355 -65.568,65.568 0,36.212 29.355,65.568 65.568,65.568 l 0,-21.855 c -24.141,-0.002 -43.712,-19.572 -43.712,-43.714 z"
           id="path15"
           inkscape:connector-curvature="0"
           style="fill:#b3b3b3;fill-opacity:1" /></g></g></g></svg>