<?xml version="1.0" encoding="UTF-8" standalone="no"?>
<!-- Created with Inkscape (http://www.inkscape.org/) -->

<svg
   xmlns:dc="http://purl.org/dc/elements/1.1/"
   xmlns:cc="http://creativecommons.org/ns#"
   xmlns:rdf="http://www.w3.org/1999/02/22-rdf-syntax-ns#"
   xmlns:svg="http://www.w3.org/2000/svg"
   xmlns="http://www.w3.org/2000/svg"
   xmlns:sodipodi="http://sodipodi.sourceforge.net/DTD/sodipodi-0.dtd"
   xmlns:inkscape="http://www.inkscape.org/namespaces/inkscape"
   width="64"
   height="64"
   id="svg3200"
   version="1.1"
   inkscape:version="0.91 r13725"
   sodipodi:docname="spi.svg">
  <defs
     id="defs3202">
    <clipPath
       clipPathUnits="userSpaceOnUse"
       id="clipPath6474-1">
      <path
         inkscape:connector-curvature="0"
         id="path6476-6"
         d="m 278.24855,83.979541 c -2.03604,5.3e-5 -3.78508,0.447696 -5.24632,1.383119 -1.46127,0.935507 -2.70486,2.480266 -3.72011,4.626294 l -1.35927,5.103231 28.80703,0 0.0238,-0.0715 8.25101,0 -0.0238,0.0715 c 0.002,-0.0031 0.0219,0.0031 0.0238,0 0.87492,-1.424273 1.85524,-3.018701 2.98086,-4.769375 1.14685,-1.815865 2.46051,-3.922021 3.93474,-6.343269 l -33.67179,0 z m 69.25133,0 -33.69564,0.0715 -2.95701,11.041104 41.01662,0 c 0.43132,-1.609698 0.81074,-2.967192 1.38312,-5.103231 0.13477,-2.146028 -0.28013,-3.690787 -1.24003,-4.626294 -0.96,-0.935424 -2.47111,-1.383066 -4.50706,-1.383119 z m 9.1572,0.0715 -2.95702,11.041104 13.92658,0 2.98086,-11.041104 z m -91.23815,17.796449 c -0.211,0.76101 -0.44358,1.54453 -0.71541,2.38468 l -0.73925,2.79009 c -0.10352,3.46676 1.86583,5.22248 5.93787,5.22247 l 19.0775,0 -2.59931,9.39566 -22.29683,0 -7.08252,11.30341 23.25071,-0.16692 0.0238,-0.0715 10.6834,-0.16693 c 4.07198,0 6.99745,-1.7319 8.75181,-5.19861 l 5.15092,-19.24442 -0.16693,0 c 0.0295,-0.11003 0.0659,-0.19989 0.0954,-0.31002 0.0993,-0.16507 0.16122,-0.31911 0.19078,-0.42924 0.13476,-2.14604 -0.28015,-3.6908 -1.24004,-4.62629 -0.38616,-0.37628 -0.87055,-0.65741 -1.43081,-0.88233 l -36.89112,0 z m 42.85283,0 -8.29871,30.92939 14.04581,0 2.76624,-10.30186 -0.0954,0 3.24318,-12.06651 21.53373,0 0.0715,-0.23847 c 1.55942,-0.2751 2.89899,-0.87687 4.03012,-1.81237 1.18609,-0.93543 2.22828,-2.30959 3.10009,-4.12551 0.10316,-0.38516 0.2011,-0.84015 0.33386,-1.33542 0.0607,-0.22637 0.19806,-0.72044 0.28616,-1.04926 l -41.01662,0 z m 42.85284,0 -8.27487,30.85784 13.87889,0 8.32256,-30.85785 z"
         style="color:#000000;font-style:normal;font-variant:normal;font-weight:bold;font-stretch:normal;font-size:48.57053375px;line-height:100%;font-family:Transformers;-inkscape-font-specification:'Transformers Bold';text-indent:0;text-align:start;text-decoration:none;text-decoration-line:none;letter-spacing:-0.54239523px;word-spacing:normal;text-transform:none;direction:ltr;block-progression:tb;writing-mode:lr-tb;text-anchor:start;visibility:visible;fill:url(#linearGradient6478);fill-opacity:1;fill-rule:nonzero;stroke:none;stroke-width:1;marker:none"
         sodipodi:nodetypes="cccccccccccccccccccccccccccccsccccccccccccccccccccccccccccccccccc" />
    </clipPath>
  </defs>
  <sodipodi:namedview
     id="base"
     pagecolor="#000000"
     bordercolor="#666666"
     borderopacity="1.0"
     inkscape:pageopacity="0"
     inkscape:pageshadow="2"
     inkscape:zoom="2.8"
     inkscape:cx="128.25337"
     inkscape:cy="36.185668"
     inkscape:document-units="px"
     inkscape:current-layer="g6480"
     showgrid="false"
     fit-margin-top="0"
     fit-margin-left="0"
     fit-margin-right="0"
     fit-margin-bottom="0"
     inkscape:window-width="1280"
     inkscape:window-height="710"
     inkscape:window-x="0"
     inkscape:window-y="281"
     inkscape:window-maximized="1" />
  <metadata
     id="metadata3205">
    <rdf:RDF>
      <cc:Work
         rdf:about="">
        <dc:format>image/svg+xml</dc:format>
        <dc:type
           rdf:resource="http://purl.org/dc/dcmitype/StillImage" />
        <dc:title></dc:title>
      </cc:Work>
    </rdf:RDF>
  </metadata>
  <g
     inkscape:label="Camada 1"
     inkscape:groupmode="layer"
     id="layer1"
     transform="translate(-335.7199,-407.43379)">
    <g
       id="g6480"
       transform="matrix(1.445086,0,0,1.445086,235.26631,308.40273)">
      <path
         inkscape:connector-curvature="0"
         id="path4643"
         d="m 78.663317,81.726011 c -0.744116,1.9e-5 -1.383342,0.16362 -1.917384,0.505491 -0.534054,0.341902 -0.988551,0.906469 -1.359597,1.690782 l -0.496775,1.865089 10.528166,0 0.0087,-0.02613 3.015515,0 -0.0087,0.02613 c 7.3e-4,-0.0011 0.008,0.0011 0.0087,0 0.319759,-0.520532 0.678038,-1.103251 1.089421,-1.743074 0.419142,-0.663648 0.899248,-1.433389 1.438038,-2.318288 l -12.306101,0 z m 25.309433,0 -12.31482,0.02613 -1.080704,4.035217 14.990434,0 c 0.15764,-0.5883 0.2963,-1.084427 0.50549,-1.865089 0.0493,-0.784314 -0.10238,-1.34888 -0.45319,-1.690782 -0.35086,-0.341872 -0.90312,-0.505472 -1.64721,-0.505492 z m 3.3467,0.02613 -1.0807,4.035217 5.08977,0 1.08942,-4.035217 z M 73.974447,88.25625 c -0.07711,0.27813 -0.162116,0.56448 -0.261462,0.87153 l -0.270175,1.0197 c -0.03783,1.26701 0.681909,1.90867 2.170126,1.90867 l 6.972295,0 -0.949975,3.43385 -8.148871,0 -2.588464,4.13108 8.497488,-0.061 0.0087,-0.0261 3.904484,-0.061 c 1.488195,0 2.557373,-0.63297 3.198543,-1.89994 l 1.882518,-7.03331 -0.06101,0 c 0.01078,-0.0402 0.02408,-0.073 0.03487,-0.1133 0.03629,-0.0603 0.05892,-0.11663 0.06973,-0.15688 0.04925,-0.78431 -0.102387,-1.34888 -0.4532,-1.69078 -0.141131,-0.13752 -0.318162,-0.24026 -0.522921,-0.32246 l -13.482676,0 z m 15.661516,0 -3.032948,11.30383 5.133353,0 1.010984,-3.76504 -0.03487,0 1.185292,-4.40998 7.869976,0 0.0261,-0.0871 c 0.56993,-0.10054 1.0595,-0.32047 1.4729,-0.66237 0.43348,-0.34187 0.81437,-0.84409 1.13299,-1.50776 0.0377,-0.14077 0.0735,-0.30705 0.12202,-0.48806 0.0222,-0.0827 0.0724,-0.2633 0.10458,-0.38347 l -14.990427,0 z m 15.661527,0 -3.02424,11.27768 5.07235,0 3.04166,-11.27768 z"
         style="color:#000000;font-style:normal;font-variant:normal;font-weight:bold;font-stretch:normal;font-size:48.57053375px;line-height:100%;font-family:Transformers;-inkscape-font-specification:'Transformers Bold';text-indent:0;text-align:start;text-decoration:none;text-decoration-line:none;letter-spacing:-0.54239523px;word-spacing:normal;text-transform:none;direction:ltr;block-progression:tb;writing-mode:lr-tb;text-anchor:start;visibility:visible;fill:#b3b3b3;fill-opacity:1;fill-rule:nonzero;stroke:none;stroke-width:1;marker:none"
         sodipodi:nodetypes="cccccccccccccccccccccccccccccsccccccccccccccccccccccccccccccccccc" />
    </g>
  </g>
</svg>
